<svg width="618" height="121" viewBox="0 0 618 121" fill="none" xmlns="http://www.w3.org/2000/svg">
<g filter="url(#filter0_d)">
<path d="M62.5874 23.1103C67.7608 23.1103 72.2674 23.9636 76.1074 25.6703C79.9474 27.3769 82.9074 29.8303 84.9874 33.0303C87.0674 36.2303 88.1074 39.9636 88.1074 44.2303C88.1074 48.4969 87.0674 52.2303 84.9874 55.4303C82.9074 58.6303 79.9474 61.0836 76.1074 62.7903C72.2674 64.4969 67.7608 65.3503 62.5874 65.3503H54.5074V79.1103H35.6274V23.1103H62.5874ZM61.3874 50.7903C63.9474 50.7903 65.8674 50.2303 67.1474 49.1103C68.4274 47.9369 69.0674 46.3103 69.0674 44.2303C69.0674 42.1503 68.4274 40.5503 67.1474 39.4303C65.8674 38.2569 63.9474 37.6703 61.3874 37.6703H54.5074V50.7903H61.3874ZM115.961 80.3903C111.321 80.3903 106.787 79.8836 102.361 78.8703C97.9872 77.8036 94.3872 76.3903 91.5606 74.6303L97.6406 60.8703C100.307 62.4169 103.294 63.6703 106.601 64.6303C109.907 65.5369 113.081 65.9903 116.121 65.9903C118.734 65.9903 120.601 65.7503 121.721 65.2703C122.841 64.7369 123.401 63.9636 123.401 62.9503C123.401 61.7769 122.654 60.8969 121.161 60.3103C119.721 59.7236 117.321 59.0836 113.961 58.3903C109.641 57.4836 106.041 56.5236 103.161 55.5103C100.281 54.4436 97.7739 52.7369 95.6406 50.3903C93.5072 47.9903 92.4406 44.7636 92.4406 40.7103C92.4406 37.1903 93.4272 33.9903 95.4006 31.1103C97.3739 28.2303 100.307 25.9636 104.201 24.3103C108.147 22.6569 112.921 21.8303 118.521 21.8303C122.361 21.8303 126.121 22.2569 129.801 23.1103C133.534 23.9103 136.814 25.1103 139.641 26.7103L133.961 40.3903C128.467 37.6169 123.267 36.2303 118.361 36.2303C113.507 36.2303 111.081 37.4036 111.081 39.7503C111.081 40.8703 111.801 41.7236 113.241 42.3103C114.681 42.8436 117.054 43.4303 120.361 44.0703C124.627 44.8703 128.227 45.8036 131.161 46.8703C134.094 47.8836 136.627 49.5636 138.761 51.9103C140.947 54.2569 142.041 57.4569 142.041 61.5103C142.041 65.0303 141.054 68.2303 139.081 71.1103C137.107 73.9369 134.147 76.2036 130.201 77.9103C126.307 79.5636 121.561 80.3903 115.961 80.3903ZM185.819 69.3503H164.539L160.779 79.1103H141.579L166.059 23.1103H184.619L209.099 79.1103H189.579L185.819 69.3503ZM180.619 55.7503L175.179 41.6703L169.739 55.7503H180.619ZM237.74 80.3903C229.153 80.3903 222.46 78.0703 217.66 73.4303C212.86 68.7903 210.46 62.2836 210.46 53.9103V23.1103H229.34V53.3503C229.34 57.4569 230.06 60.4436 231.5 62.3103C232.993 64.1769 235.127 65.1103 237.9 65.1103C240.673 65.1103 242.78 64.1769 244.22 62.3103C245.713 60.4436 246.46 57.4569 246.46 53.3503V23.1103H265.02V53.9103C265.02 62.2836 262.62 68.7903 257.82 73.4303C253.02 78.0703 246.327 80.3903 237.74 80.3903ZM302.634 80.3903C296.714 80.3903 291.381 79.1636 286.634 76.7103C281.888 74.2036 278.154 70.7369 275.434 66.3103C272.768 61.8303 271.434 56.7636 271.434 51.1103C271.434 45.4569 272.768 40.4169 275.434 35.9903C278.154 31.5103 281.888 28.0436 286.634 25.5903C291.381 23.0836 296.714 21.8303 302.634 21.8303C308.074 21.8303 312.928 22.7903 317.194 24.7103C321.461 26.6303 324.981 29.4036 327.754 33.0303L315.834 43.6703C312.368 39.2969 308.288 37.1103 303.594 37.1103C299.648 37.1103 296.474 38.3903 294.074 40.9503C291.674 43.4569 290.474 46.8436 290.474 51.1103C290.474 55.3769 291.674 58.7903 294.074 61.3503C296.474 63.8569 299.648 65.1103 303.594 65.1103C308.288 65.1103 312.368 62.9236 315.834 58.5503L327.754 69.1903C324.981 72.8169 321.461 75.5903 317.194 77.5103C312.928 79.4303 308.074 80.3903 302.634 80.3903ZM344.975 37.7503H328.575V23.1103H380.255V37.7503H363.855V79.1103H344.975V37.7503ZM385.159 23.1103H404.039V79.1103H385.159V23.1103ZM442.487 80.3903C436.461 80.3903 431.047 79.1369 426.247 76.6303C421.447 74.1236 417.687 70.6569 414.967 66.2303C412.247 61.7503 410.887 56.7103 410.887 51.1103C410.887 45.5103 412.247 40.4969 414.967 36.0703C417.687 31.5903 421.447 28.0969 426.247 25.5903C431.047 23.0836 436.461 21.8303 442.487 21.8303C448.514 21.8303 453.927 23.0836 458.727 25.5903C463.527 28.0969 467.287 31.5903 470.007 36.0703C472.727 40.4969 474.087 45.5103 474.087 51.1103C474.087 56.7103 472.727 61.7503 470.007 66.2303C467.287 70.6569 463.527 74.1236 458.727 76.6303C453.927 79.1369 448.514 80.3903 442.487 80.3903ZM442.487 65.1103C444.834 65.1103 446.941 64.5503 448.807 63.4303C450.727 62.2569 452.247 60.6303 453.367 58.5503C454.487 56.4169 455.047 53.9369 455.047 51.1103C455.047 48.2836 454.487 45.8303 453.367 43.7503C452.247 41.6169 450.727 39.9903 448.807 38.8703C446.941 37.6969 444.834 37.1103 442.487 37.1103C440.141 37.1103 438.007 37.6969 436.087 38.8703C434.221 39.9903 432.727 41.6169 431.607 43.7503C430.487 45.8303 429.927 48.2836 429.927 51.1103C429.927 53.9369 430.487 56.4169 431.607 58.5503C432.727 60.6303 434.221 62.2569 436.087 63.4303C438.007 64.5503 440.141 65.1103 442.487 65.1103ZM536.14 23.1103V79.1103H520.62L499.34 53.6703V79.1103H480.94V23.1103H496.46L517.74 48.5503V23.1103H536.14Z" fill="white"/>
</g>
<mask id="mask0" mask-type="alpha" maskUnits="userSpaceOnUse" x="18" y="-1" width="541" height="116">
<rect x="18" y="-1" width="541" height="116" rx="40" fill="#C4C4C4"/>
</mask>
<g mask="url(#mask0)">
</g>
<defs>
<filter id="filter0_d" x="0.627441" y="-8.16974" width="570.513" height="128.56" filterUnits="userSpaceOnUse" color-interpolation-filters="sRGB">
<feFlood flood-opacity="0" result="BackgroundImageFix"/>
<feColorMatrix in="SourceAlpha" type="matrix" values="0 0 0 0 0 0 0 0 0 0 0 0 0 0 0 0 0 0 127 0"/>
<feOffset dy="5"/>
<feGaussianBlur stdDeviation="17.5"/>
<feColorMatrix type="matrix" values="0 0 0 0 0.0330167 0 0 0 0 0.0325 0 0 0 0 0.0333333 0 0 0 1 0"/>
<feBlend mode="normal" in2="BackgroundImageFix" result="effect1_dropShadow"/>
<feBlend mode="normal" in="SourceGraphic" in2="effect1_dropShadow" result="shape"/>
</filter>
</defs>
</svg>
